<svg width="39" height="53" viewBox="0 0 39 53" fill="none" xmlns="http://www.w3.org/2000/svg">
<path d="M19.7388 0.665466L17.2988 5.62311V45.0737H22.1797V5.62311L19.7388 0.665466Z" fill="#D9D9D9"/>
<path d="M18.5 52.3944V45.0737H20.9403V52.3944H18.5Z" fill="#D9D9D9"/>
<path d="M35.1945 11.7237L10.7921 36.9396V40.4989L0.849609 50.4428L1.91258 51.2089C1.91258 51.2089 34.6128 18.4067 37.0254 15.9941C39.4379 13.5816 37.0254 8.6734 37.0254 8.6734L35.1945 11.7237Z" fill="#D9D9D9"/>
<path d="M3.75281 11.7237L28.1552 36.9396V40.4989L38.0977 50.4428L37.0347 51.2089C37.0347 51.2089 4.33444 18.4067 1.92191 15.9941C-0.490623 13.5816 1.92191 8.6734 1.92191 8.6734L3.75281 11.7237Z" fill="#D9D9D9"/>
</svg>
