<svg xmlns="http://www.w3.org/2000/svg" viewBox="0 0 64 64" width="64" height="64">
<path d="M 30,1 L 30,2 L 29,3 L 29,4 L 28,5 L 28,28 L 27,29 L 17,19 L 17,18 L 13,14 L 13,13 L 11,11 L 11,10 L 10,9 L 10,8 L 9,8 L 9,9 L 8,10 L 8,15 L 9,16 L 9,18 L 10,19 L 10,20 L 11,21 L 11,22 L 27,38 L 20,45 L 20,49 L 9,60 L 9,62 L 11,62 L 14,59 L 15,59 L 17,57 L 17,56 L 22,51 L 23,51 L 27,47 L 28,48 L 28,53 L 27,54 L 27,55 L 29,55 L 30,56 L 30,63 L 33,63 L 33,56 L 34,55 L 36,55 L 36,54 L 35,53 L 35,48 L 36,47 L 40,51 L 41,51 L 46,56 L 46,57 L 48,59 L 49,59 L 52,62 L 54,62 L 54,60 L 43,49 L 43,45 L 36,38 L 52,22 L 52,21 L 53,20 L 53,19 L 54,18 L 54,16 L 55,15 L 55,10 L 54,9 L 54,8 L 53,8 L 53,9 L 52,10 L 52,11 L 50,13 L 50,14 L 46,18 L 46,19 L 36,29 L 35,28 L 35,5 L 34,4 L 34,3 L 33,2 L 33,1 Z" fill="black"/>
</svg>