<svg xmlns="http://www.w3.org/2000/svg" xmlns:xlink="http://www.w3.org/1999/xlink" xmlns:inkscape="http://www.inkscape.org/namespaces/inkscape" version="1.1" width="300" height="300" viewBox="0 0 300 300">
<defs>
<clipPath id="clip_2">
<path transform="matrix(1,0,0,-1,0,300)" d="M0 300H300V0H0Z"/>
</clipPath>
</defs>
<path transform="matrix(1,0,0,-1,101.892,245.9375)" d="M0 0-6.907-4.933-57.794 42.029-53.431 49.31-39.437 36.396 47.912 131.045 77.774 137.878 73.355 107.564-13.993 12.914Z" fill="#ffffff"/>
<g clip-path="url(#clip_2)">
<path transform="matrix(1,0,0,-1,72.1644,237.8193)" d="M0 0-25.629-27.772C-25.629-27.772-30.045-28.408-34.593-24.211-39.141-20.015-38.859-15.563-38.859-15.563L-13.23 12.21Z" fill="#ffffff"/>
<path transform="matrix(1,0,0,-1,96.7475,146.6855)" d="M0 0 10.053 6.239-8.604 29.681 29.81 33.831 31.544 68.288 53.947 54.222 89.434 71.408 94.18 31.674 120.978 24.958 98.793 11.772 114.738-16.639 83.781-15.694 81.075-54.336 56.718-35.649 51.247-46.141 93.358-109.243 99.798-32.626 162.385-54.575 123.819 6.506 169.951 27.532 113.299 46.565 109.885 112.312 54.943 73.555 9.382 106.114 11.979 51.79-62.572 48.581Z" fill="#ffffff"/>
</g>
</svg>
