<svg xmlns="http://www.w3.org/2000/svg" xmlns:xlink="http://www.w3.org/1999/xlink" xmlns:inkscape="http://www.inkscape.org/namespaces/inkscape" version="1.1" width="600" height="600" viewBox="0 0 600 600">
<defs>
<clipPath id="clip_0">
<path transform="matrix(1,0,0,-1,0,600)" d="M0 600H600V0H0Z"/>
</clipPath>
</defs>
<g clip-path="url(#clip_0)">
<path transform="matrix(1,0,0,-1,300,584.3477)" d="M0 0C-3.921 0-7.608 1.527-10.381 4.3L-280.048 273.966C-285.772 279.69-285.772 289.004-280.048 294.729L-10.381 564.396C-7.608 567.168-3.921 568.695 0 568.695 3.922 568.695 7.608 567.168 10.382 564.396L280.048 294.729C282.82 291.956 284.348 288.269 284.348 284.348 284.348 280.426 282.82 276.739 280.048 273.966L10.382 4.3C7.608 1.527 3.922 0 0 0" fill="#d6a529"/>
<path transform="matrix(1,0,0,-1,300,10.652283)" d="M0 0C-5.037 0-10.074-1.921-13.917-5.764L-283.583-275.431C-291.27-283.117-291.27-295.578-283.583-303.265L-13.917-572.931C-10.074-576.774-5.037-578.695 0-578.695 5.037-578.695 10.073-576.774 13.917-572.931L283.583-303.265C291.27-295.578 291.27-283.117 283.583-275.431L13.917-5.764C10.073-1.921 5.037 0 0 0M0-10C2.586-10 5.018-11.007 6.846-12.835L276.512-282.502C280.287-286.277 280.287-292.419 276.512-296.193L6.846-565.859C5.018-567.688 2.586-568.695 0-568.695-2.586-568.695-5.017-567.688-6.846-565.859L-276.512-296.193C-280.287-292.419-280.287-286.277-276.512-282.502L-6.846-12.835C-5.017-11.007-2.586-10 0-10" fill="#ffffff"/>
<path transform="matrix(1,0,0,-1,299.0156,217.3628)" d="M0 0 35.813-62.031 71.627-124.062H0-71.627L-35.813-62.031Z" fill="#ffffff"/>
<path transform="matrix(1,0,0,-1,326.0186,158.39359)" d="M0 0C0-14.914-12.09-27.003-27.003-27.003-41.916-27.003-54.005-14.914-54.005 0-54.005 14.913-41.916 27.002-27.003 27.002-12.09 27.002 0 14.913 0 0" fill="#ffffff"/>
<path transform="matrix(1,0,0,-1,402.9258,395.83009)" d="M0 0C-12.611 7.96-16.382 24.636-8.422 37.247-.462 49.858 16.214 53.629 28.825 45.669 41.437 37.71 45.207 21.033 37.247 8.422 29.287-4.189 12.611-7.96 0 0" fill="#ffffff"/>
<path transform="matrix(1,0,0,-1,167.6636,353.5713)" d="M0 0C12.401 8.283 29.169 4.944 37.452-7.457 45.735-19.858 42.396-36.627 29.995-44.909 17.593-53.192 .825-49.854-7.458-37.452-15.74-25.051-12.401-8.282 0 0" fill="#ffffff"/>
<path transform="matrix(1,0,0,-1,439.3105,298.314)" stroke-width="16" stroke-linecap="butt" stroke-miterlimit="10" stroke-linejoin="miter" fill="none" stroke="#ffffff" d="M0 0C0-77.483-62.812-140.295-140.295-140.295-217.778-140.295-280.59-77.483-280.59 0-280.59 77.483-217.778 140.295-140.295 140.295-62.812 140.295 0 77.483 0 0Z"/>
<path transform="matrix(1,0,0,-1,375.5986,298.314)" stroke-width="16" stroke-linecap="butt" stroke-miterlimit="10" stroke-linejoin="miter" fill="none" stroke="#ffffff" d="M0 0C0-42.295-34.287-76.583-76.583-76.583-118.879-76.583-153.166-42.295-153.166 0-153.166 42.296-118.879 76.583-76.583 76.583-34.287 76.583 0 42.296 0 0Z"/>
</g>
</svg>
