<svg xmlns="http://www.w3.org/2000/svg" xmlns:xlink="http://www.w3.org/1999/xlink" xmlns:inkscape="http://www.inkscape.org/namespaces/inkscape" version="1.1" width="600" height="600" viewBox="0 0 600 600">
<defs>
<clipPath id="clip_1">
<path transform="matrix(1,0,0,-1,0,600)" d="M0 600H600V0H0Z"/>
</clipPath>
<clipPath id="clip_2">
<path transform="matrix(1,0,0,-1,0,600)" d="M286.083 583.583 16.416 313.916C8.731 306.23 8.731 293.77 16.416 286.083L286.083 16.417C293.77 8.731 306.23 8.731 313.916 16.417L583.583 286.083C591.269 293.77 591.269 306.23 583.583 313.916L313.916 583.583C310.073 587.426 305.037 589.348 300 589.348 294.963 589.348 289.926 587.426 286.083 583.583"/>
</clipPath>
</defs>
<g clip-path="url(#clip_1)">
<path transform="matrix(1,0,0,-1,300.0002,584.3477)" d="M0 0C-3.922 0-7.608 1.527-10.382 4.3L-280.049 273.966C-285.772 279.69-285.772 289.005-280.048 294.729L-10.382 564.396C-7.608 567.168-3.922 568.696 0 568.696 3.921 568.696 7.607 567.168 10.38 564.396L280.048 294.729C282.82 291.956 284.348 288.269 284.348 284.348 284.348 280.426 282.82 276.739 280.048 273.966L10.381 4.3C7.607 1.527 3.921 0 0 0" fill="#7d58a4"/>
<path transform="matrix(1,0,0,-1,300.0002,10.652283)" d="M0 0C-5.037 0-10.074-1.921-13.917-5.764L-283.583-275.431C-291.27-283.117-291.27-295.578-283.583-303.265L-13.917-572.931C-10.074-576.773-5.037-578.695 0-578.695 5.037-578.695 10.073-576.773 13.917-572.931L283.583-303.265C291.27-295.578 291.27-283.117 283.583-275.431L13.917-5.764C10.073-1.921 5.037 0 0 0M0-10C2.586-10 5.017-11.007 6.846-12.835L276.512-282.502C280.287-286.277 280.287-292.419 276.512-296.193L6.846-565.86C5.017-567.688 2.586-568.695 0-568.695-2.586-568.695-5.018-567.688-6.846-565.859L-276.513-296.193C-280.287-292.419-280.287-286.277-276.513-282.502L-6.846-12.835C-5.018-11.007-2.586-10 0-10" fill="#ffffff"/>
</g>
<g clip-path="url(#clip_2)">
<path transform="matrix(1,0,0,-1,172.467,94)" d="M0 0 46.435-213.406C47.045-216.868 50.605-218.965 53.93-217.821L107.275-199.464C110.865-198.228 114.642-200.769 114.849-204.56L125.825-404.83C126.173-411.178 135.063-412.309 136.989-406.25L231.383-109.269C232.728-105.037 228.948-100.953 224.625-101.966L153.616-118.613C149.214-119.645 145.411-115.403 146.916-111.139L193.701 21.374C194.346 23.199 151.152 81.109 151.152 81.109 150.069 82.521 148.392 83.348 146.613 83.348H51.112C48.956 83.348 46.983 82.136 46.009 80.213 46.009 80.213-.216 1.22 0 0" fill="#ffffff"/>
</g>
</svg>
