<svg xmlns="http://www.w3.org/2000/svg" xmlns:xlink="http://www.w3.org/1999/xlink" xmlns:inkscape="http://www.inkscape.org/namespaces/inkscape" version="1.1" width="600" height="600" viewBox="0 0 600 600">
<defs>
<clipPath id="clip_3">
<path transform="matrix(1,0,0,-1,0,600)" d="M0 600H600V0H0Z"/>
</clipPath>
<clipPath id="clip_4">
<path transform="matrix(1,0,0,-1,0,600)" d="M286.083 583.583 16.417 313.916C8.73 306.23 8.73 293.77 16.417 286.083L286.083 16.417C293.77 8.731 306.23 8.731 313.917 16.417L583.583 286.083C591.269 293.77 591.269 306.23 583.583 313.916L313.917 583.583C310.074 587.426 305.037 589.348 300 589.348 294.963 589.348 289.926 587.426 286.083 583.583"/>
</clipPath>
<clipPath id="clip_5">
<path transform="matrix(1,0,0,-1,0,600)" d="M0 600H600V0H0Z"/>
</clipPath>
</defs>
<g clip-path="url(#clip_3)">
<path transform="matrix(1,0,0,-1,300,584.3477)" d="M0 0C-3.922 0-7.608 1.527-10.382 4.3L-280.048 273.966C-282.82 276.739-284.348 280.426-284.348 284.348-284.348 288.269-282.82 291.956-280.048 294.729L-10.382 564.396C-7.608 567.168-3.922 568.696 0 568.696 3.922 568.696 7.608 567.168 10.382 564.396L280.048 294.729C282.82 291.956 284.348 288.269 284.348 284.348 284.348 280.426 282.82 276.739 280.048 273.966L10.382 4.3C7.608 1.527 3.922 0 0 0" fill="#69797d"/>
<path transform="matrix(1,0,0,-1,300,10.652283)" d="M0 0C-5.037 0-10.073-1.921-13.917-5.764L-283.583-275.431C-291.27-283.117-291.27-295.578-283.583-303.265L-13.917-572.931C-10.073-576.773-5.037-578.695 0-578.695 5.037-578.695 10.073-576.773 13.917-572.931L283.583-303.265C291.27-295.578 291.27-283.117 283.583-275.431L13.917-5.764C10.073-1.921 5.037 0 0 0M0-10C2.586-10 5.017-11.007 6.846-12.835L276.513-282.502C280.287-286.277 280.287-292.419 276.513-296.193L6.846-565.86C5.017-567.688 2.586-568.695 0-568.695-2.586-568.695-5.017-567.688-6.846-565.859L-276.513-296.193C-280.287-292.419-280.287-286.277-276.513-282.502L-6.846-12.835C-5.017-11.007-2.586-10 0-10" fill="#ffffff"/>
</g>
<g clip-path="url(#clip_4)">
<path transform="matrix(1,0,0,-1,470.7783,445.43159)" d="M0 0C0 0-27.653 34.079-28.102 36.065-28.549 38.052-24.78 59.582-25.052 75.592-25.323 91.602-36.317 120.021-34.791 126.209-33.265 132.397-21.06 186.397-21.456 189.543-21.853 192.689-34.08 201.097-46.921 193.713-59.761 186.33-63.988 161.583-66.398 155.613-68.809 149.643-70.911 143.126-78.019 139.072-89.15 132.721-93.963 141.423-102.218 150.727-106.232 155.25-131.351 217.281-136.402 226.264-141.455 235.247-147.489 258.903-165.288 251.672-184.129 244.018-160.006 197.802-157.669 192.068-155.332 186.333-143.423 156.669-142.36 152.421-141.298 148.173-143.838 146.268-146.759 144.878-149.681 143.488-150.769 140.193-160.689 152.252-170.61 164.312-194.367 191.083-197.858 194.991-201.349 198.9-221.222 221.04-227.576 222.842-233.931 224.644-250.468 216.53-245.955 203.46-241.441 190.39-216.895 170.569-205.866 157.299-194.838 144.028-170.208 123.265-173.658 115.829-176.855 108.937-192.455 120.644-206.97 129.174-221.483 137.705-251.153 158.402-255.24 158.941-259.327 159.48-271.795 156.459-271.478 143.486-271.16 130.514-243.927 116.95-236.624 112.336-229.322 107.722-191.541 84.952-194.348 76.62-196.098 71.425-216.327 78.759-228.268 83.579-240.208 88.399-269.202 99.107-273.242 90.207-278.89 77.768-275.978 66.974-243.698 55.262-211.419 43.549-204.954 38.835-198.203 33.888-191.452 28.94-171.025 1.199-145.83-8.751-130.021-14.995-111.408-21.71-100.427-19.963-91.053-23.732-71.323-55.163-71.323-55.163-71.323-55.163-48.482-49.222-31.048-35.315-13.613-21.41 0 0 0 0" fill="#ffffff"/>
</g>
<g clip-path="url(#clip_5)">
<path transform="matrix(1,0,0,-1,410.08,170.2378)" d="M0 0-27.074-68.728C-28.658-72.75-30.885-72.161-30.272-67.881L-19.803 5.241C-19.383 8.17-17.816 10.835-16.689 10.537L-.085 6.143C1.042 5.844 1.084 2.752 0 0" fill="#ffffff"/>
<path transform="matrix(1,0,0,-1,250.0166,152.00241)" d="M0 0 14.682-36.225C15.541-38.345 14.17-39.163 12.712-37.4L-12.195-7.276C-13.193-6.07-13.501-4.428-12.807-4.014L-2.581 2.088C-1.887 2.502-.588 1.451 0 0" fill="#ffffff"/>
<path transform="matrix(1,0,0,-1,162.1181,218.4346)" d="M0 0 36.477-34.289C38.611-36.296 37.664-37.581 35.116-36.135L-8.428-11.431C-10.172-10.441-11.453-8.779-10.974-8.129L-3.907 1.456C-3.428 2.106-1.462 1.374 0 0" fill="#ffffff"/>
<path transform="matrix(1,0,0,-1,136.4892,320.373)" d="M0 0 33.015-13.757C34.946-14.563 34.648-15.586 32.586-15.229L-2.653-9.111C-4.064-8.866-5.342-8.093-5.19-7.574L-2.966 .065C-2.815 .584-1.322 .551 0 0" fill="#ffffff"/>
<path transform="matrix(1,0,0,-1,183.6953,412.5635)" d="M0 0 37.143 6.404C39.316 6.779 39.78 5.37 37.81 4.38L4.129-12.539C2.78-13.217 1.175-13.18 .94-12.467L-2.522-1.952C-2.757-1.239-1.488-.256 0 0" fill="#ffffff"/>
<path transform="matrix(1,0,0,-1,334.3691,136.93412)" d="M0 0-9.429-31.857C-9.98-33.722-11.383-33.541-11.443-31.597L-12.474 1.61C-12.515 2.94-11.838 4.195-11.128 4.104L-.668 2.753C.041 2.662 .378 1.276 0 0" fill="#ffffff"/>
</g>
</svg>
