<svg xmlns="http://www.w3.org/2000/svg" xmlns:xlink="http://www.w3.org/1999/xlink" xmlns:inkscape="http://www.inkscape.org/namespaces/inkscape" version="1.1" width="300" height="300" viewBox="0 0 300 300">
<defs>
<clipPath id="clip_20">
<path transform="matrix(1,0,0,-1,0,300)" d="M0 300H300V0H0Z"/>
</clipPath>
</defs>
<g clip-path="url(#clip_20)">
<path transform="matrix(1,0,0,-1,269.9258,143.868)" d="M0 0C-1.537 29.632-13.804 57.273-34.94 78.411-57.582 101.052-87.688 113.524-119.707 113.524-151.726 113.524-181.828 101.052-204.469 78.411-217.021 65.858-226.439 51.012-232.345 34.818L-197.559 70.284-187.917 35.662C-173.786 58.521-148.498 73.786-119.707 73.786-81.354 73.786-49.214 46.703-41.393 10.658L-58.101 14.96-36.836-61.383 18.655-4.804Z" fill="#231f20"/>
<path transform="matrix(1,0,0,-1,227.6387,226.41089)" d="M0 0-9.642 34.621C-23.769 11.757-49.062-3.508-77.857-3.508-116.21-3.508-148.35 23.575-156.171 59.62L-139.465 55.317-160.725 131.662-216.219 75.086-197.564 70.281C-196.028 40.647-183.762 13.006-162.624-8.132-139.983-30.777-109.876-43.245-77.857-43.245-45.838-43.245-15.736-30.777 6.904-8.132 19.461 4.426 28.89 19.272 34.79 35.471Z" fill="#231f20"/>
</g>
</svg>
