<svg xmlns="http://www.w3.org/2000/svg" xmlns:xlink="http://www.w3.org/1999/xlink" xmlns:inkscape="http://www.inkscape.org/namespaces/inkscape" version="1.1" width="300" height="300" viewBox="0 0 300 300">
<defs>
<clipPath id="clip_18">
<path transform="matrix(1,0,0,-1,0,300)" d="M0 300H300V0H0Z"/>
</clipPath>
</defs>
<g clip-path="url(#clip_18)">
<path transform="matrix(1,0,0,-1,191.0898,212.3027)" d="M0 0C-.265 .289-.522 .57-15.026 17.827-38.434-7.943-44.209-13.736-46.541-15.73-51.897-20.309-58.155-22.729-64.638-22.729-72.89-22.729-84.675-18.065-93.002-4.979L-99.356 5.009-91.12 13.511C-89.721 14.968-78.436 27.571-66.488 40.916-61.396 46.603-55.796 52.857-49.939 59.393-62.71 74.604-80.037 95.252-80.81 96.219L-89.15 106.651-79.751 116.141C-72.385 123.577-51.184 136.862-35.158 136.862-26.131 136.862-20.678 132.973-17.692 129.71-17.515 129.516-17.143 129.108-2.655 111.895-1.19 113.508 .205 115.042 1.536 116.503V154.761C1.536 160.284-2.941 164.761-8.464 164.761H-134.833C-140.356 164.761-144.833 160.284-144.833 154.761V-30.155C-144.833-35.679-140.356-40.155-134.833-40.155H-8.464C-2.941-40.155 1.536-35.679 1.536-30.155V-1.508C.967-1.001 .451-.493 0 0" fill="#ffffff"/>
<path transform="matrix(1,0,0,-1,253.7432,85.66701)" d="M0 0C-3.226 5.069-13.438 16.479-24.059 7.402-27.686 4.303-45.198-14.821-65.725-37.547-79.793-20.819-91.131-7.359-91.413-7.051-98.58 .782-124.271-13.504-131.747-21.051-131.101-21.858-112.083-44.525-92.735-67.566-117.862-95.571-140.713-121.201-143-123.562-139.774-128.631-129.561-140.041-118.94-130.964-115.313-127.863-97.791-108.729-77.257-85.995-63.211-102.715-51.887-116.183-51.586-116.511-44.42-124.344-18.729-110.058-11.253-102.511-13.141-100.148-31.543-78.214-50.238-55.967-25.122-27.972-2.286-2.359 0 0" fill="#e26869"/>
</g>
</svg>
