<svg xmlns="http://www.w3.org/2000/svg" xmlns:xlink="http://www.w3.org/1999/xlink" xmlns:inkscape="http://www.inkscape.org/namespaces/inkscape" version="1.1" width="300" height="300" viewBox="0 0 300 300">
<defs>
<clipPath id="clip_6">
<path transform="matrix(1,0,0,-1,0,300)" d="M0 300H300V0H0Z"/>
</clipPath>
</defs>
<g clip-path="url(#clip_6)">
<path transform="matrix(1,0,0,-1,32.1006,50.6035)" d="M0 0C8.271-7.591 36.133-30.492 75.469-34.946 76.067-35.014 76.535-35.492 76.579-36.093 78.144-57.461 81.823-89.995 105.271-134.408 105.621-135.071 106.476-135.282 107.093-134.856 109.879-132.932 112.703-130.901 114.091-129.897 114.596-129.531 114.753-128.854 114.461-128.302 111.804-123.27 99.48-99.213 94.216-76.187 94.09-75.636 94.348-75.071 94.847-74.805 107.144-68.254 150.774-48.079 160.129-43.763 160.959-43.38 161.903-43.987 161.903-44.901V-122.841C161.903-123.163 161.778-123.473 161.556-123.706L124.575-162.385C124.339-162.633 124.214-162.967 124.229-163.31L125.873-197.813C125.907-198.527 125.337-199.125 124.622-199.125H64.707C63.818-199.125 63.213-198.226 63.547-197.402L76.412-165.692C76.473-165.542 76.504-165.383 76.504-165.222V-138.767C76.504-138.291 76.235-137.859 75.811-137.646 73.838-136.654 68.439-133.212 70-125.836 70.151-125.122 69.649-124.432 68.924-124.35 57.754-123.079 42.546-118.811 36.021-110.635 35.314-109.749 36.015-108.465 37.141-108.596 44.81-109.487 53.53-107.819 58.359-106.649 59.533-106.365 59.661-104.745 58.547-104.28 49.203-100.376 24.111-87.954 17.74-64.975 17.445-63.909 18.561-63.01 19.539-63.526 32.44-70.322 43.603-72.422 49.737-73.063 51.05-73.2 51.647-71.473 50.536-70.762 38.348-62.954 3.675-37.8-2.084-1.122-2.268 .047-.872 .8 0 0" fill="#ffffff"/>
<path transform="matrix(1,0,0,-1,176.7578,249.7285)" d="M0 0H91.741C92.576 0 93.248 .681 93.242 1.516 93.173 10.822 89.779 59.86 25.993 60.2 25.572 60.203 25.167 60.028 24.881 59.72 20.3 54.782 .459 34.383-2.825 31.008-3.12 30.705-3.271 30.293-3.246 29.871L-1.498 1.408C-1.449 .617-.793 0 0 0" fill="#ffffff"/>
</g>
</svg>
