<svg xmlns="http://www.w3.org/2000/svg" xmlns:xlink="http://www.w3.org/1999/xlink" xmlns:inkscape="http://www.inkscape.org/namespaces/inkscape" version="1.1" width="600" height="600" viewBox="0 0 600 600">
<defs>
<clipPath id="clip_14">
<path transform="matrix(1,0,0,-1,0,600)" d="M0 600H600V0H0Z"/>
</clipPath>
</defs>
<g clip-path="url(#clip_14)">
<path transform="matrix(1,0,0,-1,300.0002,584.3477)" d="M0 0C-3.922 0-7.608 1.527-10.382 4.3L-280.048 273.966C-285.771 279.69-285.771 289.005-280.048 294.729L-10.382 564.396C-7.608 567.168-3.922 568.695 0 568.695 3.922 568.695 7.608 567.168 10.382 564.396L280.048 294.729C285.771 289.005 285.771 279.69 280.048 273.966L10.382 4.3C7.608 1.527 3.922 0 0 0" fill="#ca8d4f"/>
<path transform="matrix(1,0,0,-1,300.0002,10.652527)" d="M0 0C-5.037 0-10.074-1.921-13.917-5.765L-283.583-275.431C-291.27-283.117-291.27-295.578-283.583-303.265L-13.917-572.931C-10.074-576.773-5.037-578.695 0-578.695 5.037-578.695 10.073-576.773 13.917-572.931L283.583-303.265C291.27-295.578 291.27-283.117 283.583-275.431L13.917-5.765C10.073-1.921 5.037 0 0 0M0-10C2.586-10 5.017-11.007 6.846-12.835L276.513-282.502C278.341-284.33 279.348-286.762 279.348-289.348 279.348-291.934 278.341-294.364 276.512-296.193L6.846-565.859C5.017-567.688 2.586-568.695 0-568.695-2.586-568.695-5.018-567.688-6.846-565.859L-276.513-296.193C-280.287-292.419-280.287-286.276-276.513-282.502L-6.846-12.835C-5.018-11.007-2.586-10 0-10" fill="#ffffff"/>
<path transform="matrix(1,0,0,-1,446.5754,270.0001)" d="M0 0-18.052-18.182H-365.354L-372.575-30-365.354-41.818H-18.052L0-60 79.425-30Z" fill="#ffffff"/>
<path transform="matrix(1,0,0,-1,356.9611,268.4757)" d="M0 0 30.093 23.392H3.461L30.093 69.554-12.518 36.707V154.775L-48.915 59.788-71.996 105.063V56.682L-97.629 66.003-73.69 25.275C-72.815 23.787-70.873 23.312-69.428 24.253-63.714 27.978-49.02 35.354-30.976 27.621-17.294 21.758-8.077 7.328-4.522 .917-3.618-.715-1.473-1.145 0 0" fill="#ffffff"/>
<path transform="matrix(1,0,0,-1,356.9611,333.7237)" d="M0 0 30.093-23.392H3.461L30.093-69.554-12.518-36.708V-154.776L-48.915-59.789-71.996-105.063V-56.682L-97.629-66.003-73.69-25.275C-72.815-23.788-70.873-23.312-69.428-24.254-63.714-27.978-49.02-35.354-30.976-27.621-17.294-21.758-8.077-7.328-4.522-.917-3.618 .715-1.473 1.145 0 0" fill="#ffffff"/>
</g>
</svg>
