<svg xmlns="http://www.w3.org/2000/svg" xmlns:xlink="http://www.w3.org/1999/xlink" xmlns:inkscape="http://www.inkscape.org/namespaces/inkscape" version="1.1" width="600" height="600" viewBox="0 0 600 600">
<defs>
<clipPath id="clip_10">
<path transform="matrix(1,0,0,-1,0,600)" d="M0 600H600V0H0Z"/>
</clipPath>
</defs>
<g clip-path="url(#clip_10)">
<path transform="matrix(1,0,0,-1,300,584.3477)" d="M0 0C-3.922 0-7.608 1.527-10.382 4.3L-280.048 273.966C-285.771 279.69-285.771 289.005-280.048 294.729L-10.382 564.396C-7.608 567.168-3.922 568.695 0 568.695 3.922 568.695 7.608 567.168 10.382 564.396L280.048 294.729C285.772 289.005 285.772 279.69 280.048 273.966L10.382 4.3C7.608 1.527 3.922 0 0 0" fill="#7c7f67"/>
<path transform="matrix(1,0,0,-1,300,10.652527)" d="M0 0C-5.037 0-10.073-1.921-13.917-5.765L-283.583-275.431C-291.27-283.117-291.27-295.578-283.583-303.265L-13.917-572.931C-10.073-576.773-5.037-578.695 0-578.695 5.037-578.695 10.073-576.773 13.917-572.931L283.583-303.265C291.27-295.578 291.27-283.117 283.583-275.431L13.917-5.765C10.073-1.921 5.037 0 0 0M0-10C2.586-10 5.017-11.007 6.846-12.835L276.513-282.502C280.287-286.276 280.287-292.419 276.513-296.193L6.846-565.859C5.018-567.688 2.586-568.695 0-568.695-2.586-568.695-5.017-567.688-6.846-565.859L-276.513-296.193C-280.287-292.419-280.287-286.276-276.513-282.502L-6.846-12.835C-5.017-11.007-2.586-10 0-10" fill="#ffffff"/>
<path transform="matrix(1,0,0,-1,475.3554,276.63)" d="M0 0C-7.499 32.863-24.952 95.097-169.214 95.097-313.475 95.097-330.928 32.863-338.427 0-351.779-58.51-325.719-86.403-310.777-96.87-292.38-109.759-248.584-111.956-248.584-111.956-248.584-111.956-254.481-141.159-248.584-147.954-235.609-162.903-107.109-163.903-89.843-147.954-83.233-141.849-89.843-111.956-89.843-111.956-89.843-111.956-46.047-109.759-27.649-96.87-12.709-86.403 13.353-58.51 0 0" fill="#ffffff"/>
<path transform="matrix(1,0,0,-1,298.9716,327.0548)" d="M0 0C-8.886-1.687-22.468-37.379-19.615-44.226-16.763-51.072-10.527-41.39 2.637-44.226 14.25-46.729 14.217-49.906 20.25-49.979 24.518-50.029 20.346-31.678 16.834-13.979 14.167-.541 8.887 1.687 0 0" fill="#7c7f67"/>
<path transform="matrix(1,0,0,-1,232.1562,295.0001)" d="M0 0 29.903 26.16C32.932 29.118 32.932 33.916 29.903 36.874 26.877 39.834 21.964 39.834 18.937 36.874L-7.07 7.07-33.639 36.863C-36.408 39.815-40.905 39.815-43.675 36.863-46.447 33.913-46.447 29.127-43.675 26.177L-14.141 0-44.147-26.162C-47.249-29.119-47.249-33.914-44.147-36.871-42.599-38.351-40.565-39.09-38.533-39.09-36.502-39.09-34.469-38.351-32.92-36.871L-7.07-7.07 19.409-36.74C20.814-38.174 22.658-38.891 24.501-38.891 26.344-38.891 28.188-38.174 29.594-36.74 32.406-33.875 32.406-29.228 29.594-26.361Z" fill="#7c7f67"/>
<path transform="matrix(1,0,0,-1,232.1562,295.0001)" stroke-width="5" stroke-linecap="butt" stroke-miterlimit="10" stroke-linejoin="miter" fill="none" stroke="#7c7f69" d="M0 0 29.903 26.16C32.932 29.118 32.932 33.916 29.903 36.874 26.877 39.834 21.964 39.834 18.937 36.874L-7.07 7.07-33.639 36.863C-36.408 39.815-40.905 39.815-43.675 36.863-46.447 33.913-46.447 29.127-43.675 26.177L-14.141 0-44.147-26.162C-47.249-29.119-47.249-33.914-44.147-36.871-42.599-38.351-40.565-39.09-38.533-39.09-36.502-39.09-34.469-38.351-32.92-36.871L-7.07-7.07 19.409-36.74C20.814-38.174 22.658-38.891 24.501-38.891 26.344-38.891 28.188-38.174 29.594-36.74 32.406-33.875 32.406-29.228 29.594-26.361L0 0Z"/>
<path transform="matrix(1,0,0,-1,382.1425,295.0001)" d="M0 0 29.903 26.16C32.933 29.118 32.933 33.916 29.903 36.874 26.877 39.834 21.964 39.834 18.938 36.874L-7.07 7.07-33.639 36.863C-36.408 39.815-40.905 39.815-43.675 36.863-46.447 33.913-46.447 29.127-43.675 26.177L-14.141 0-44.147-26.162C-47.249-29.119-47.249-33.914-44.147-36.871-42.598-38.351-40.564-39.09-38.533-39.09-36.502-39.09-34.469-38.351-32.919-36.871L-7.07-7.07 19.409-36.74C20.814-38.174 22.659-38.891 24.502-38.891 26.344-38.891 28.188-38.174 29.594-36.74 32.407-33.875 32.407-29.228 29.594-26.361Z" fill="#7c7f67"/>
<path transform="matrix(1,0,0,-1,382.1425,295.0001)" stroke-width="5" stroke-linecap="butt" stroke-miterlimit="10" stroke-linejoin="miter" fill="none" stroke="#7c7f69" d="M0 0 29.903 26.16C32.933 29.118 32.933 33.916 29.903 36.874 26.877 39.834 21.964 39.834 18.938 36.874L-7.07 7.07-33.639 36.863C-36.408 39.815-40.905 39.815-43.675 36.863-46.447 33.913-46.447 29.127-43.675 26.177L-14.141 0-44.147-26.162C-47.249-29.119-47.249-33.914-44.147-36.871-42.598-38.351-40.564-39.09-38.533-39.09-36.502-39.09-34.469-38.351-32.919-36.871L-7.07-7.07 19.409-36.74C20.814-38.174 22.659-38.891 24.502-38.891 26.344-38.891 28.188-38.174 29.594-36.74 32.407-33.875 32.407-29.228 29.594-26.361L0 0Z"/>
</g>
</svg>
