<svg xmlns="http://www.w3.org/2000/svg" xmlns:xlink="http://www.w3.org/1999/xlink" xmlns:inkscape="http://www.inkscape.org/namespaces/inkscape" version="1.1" width="300" height="300" viewBox="0 0 300 300">
<defs>
<clipPath id="clip_5">
<path transform="matrix(1,0,0,-1,0,300)" d="M0 300H300V0H0Z"/>
</clipPath>
</defs>
<g clip-path="url(#clip_5)">
<path transform="matrix(1,0,0,-1,83.5189,191.4072)" d="M0 0-16.316 129.236C-16.292 129.216-16.27 129.2-16.245 129.181-5.742 120.747 10.421 122.466 25.976 113.883 39.824 106.238 53.608 94.307 80.144 56.99 106.68 19.673 113.423 2.735 116.098-12.855 119.098-30.366 112.167-45.069 116.685-57.759 116.695-57.788 116.703-57.814 116.713-57.844ZM127.398-49.345C127.125-36.288 134.256-24.326 130.736-2.977 127.216 18.373 108.366 45.254 93.346 66.377 78.325 87.5 59.124 114.131 40.113 124.466 21.104 134.801 7.463 131.993-4.78 136.538-17.023 141.084-23.047 154.027-27.271 151.023-29.645 149.336-29.185 145.306-26.459 140.608L-8.282-3.381-5.914-6.712 124.124-71.158C127.667-75.275 131.323-77.033 133.695-75.346 137.92-72.342 127.672-62.401 127.398-49.345" fill="#ffffff"/>
<path transform="matrix(1,0,0,-1,111.7698,181.7988)" d="M0 0 3.535-15.243-32.183-40.126-37.831-15.784-58.969-2.457-23.251 22.427-10.013 14.083 86.041 82.265 72.12 90.817 131.58 104.045 99.562 52.226 96.055 68.183Z" fill="#ffffff"/>
</g>
</svg>
