<svg xmlns="http://www.w3.org/2000/svg" xmlns:xlink="http://www.w3.org/1999/xlink" xmlns:inkscape="http://www.inkscape.org/namespaces/inkscape" version="1.1" width="300" height="300" viewBox="0 0 300 300">
<defs>
<clipPath id="clip_8">
<path transform="matrix(1,0,0,-1,0,300)" d="M0 300H300V0H0Z"/>
</clipPath>
</defs>
<g clip-path="url(#clip_8)">
<path transform="matrix(1,0,0,-1,75.9717,195.84369)" d="M0 0C0 0-33.958 50.147-33.824 52.814-33.528 58.749 14.242 109.485 23.144 113.936 32.044 118.387 53.407 118.387 67.649 121.947 81.892 125.507 92.572 129.958 97.023 123.728 101.474 117.497 93.463 87.232 82.781 81.892 64.609 72.805 49.847 73.88 49.847 73.88L45.396 68.54C45.396 68.54 72.708 40.66 67.649 19.583 62.309-2.67 48.066-25.813 14.242-34.715 3.052-37.659 0 0 0 0" fill="#231f20"/>
<path transform="matrix(1,0,0,-1,152.1328,129.5918)" d="M0 0C-1.841 .436-3.409-1.4-2.671-3.142 2.272-14.815 13.247-48.772-8.512-82.273-27.204-111.055-57.469-111.647-57.469-111.647L-50.051-146.659H11.367L16.77-115.474C17.166-113.186 20.288-112.77 21.242-114.887 23.816-120.602 27.062-130.763 27.849-146.659H69.368C69.368-146.659 62.123-104.529 64.775-86.725 66.852-72.779 93.259-44.295 93.259-44.295L83.171-19.668Z" fill="#231f20"/>
<path transform="matrix(1,0,0,-1,65.9072,94.2793)" d="M0 0-5.958 40.855C-5.958 40.855 18.233 64.321 28.757 67.559 36.472 69.933 45.669 63.108 45.669 63.108L47.449 28.097C47.449 28.097 32.317 26.317 27.273 23.646 19.462 19.511 0 0 0 0" fill="#231f20"/>
<path transform="matrix(1,0,0,-1,129.3789,63.808595)" d="M0 0 .594 30.264C.594 30.264 20.77 39.765 28.78 40.056 36.792 40.347 48.66 25.813 48.66 25.813 48.66 25.813 46.255 8.011 42.133 7.121 38.011 6.231 0 0 0 0" fill="#231f20"/>
<path transform="matrix(1,0,0,-1,192.5781,47.4897)" d="M0 0C0 0-16.918-50.498-18.693-70.913-19.286-77.737 9.791-83.375 11.571-78.924 13.352-74.474 31.45-15.726 30.561-8.604 29.67-1.483 8.604 4.154 0 0" fill="#231f20"/>
<path transform="matrix(1,0,0,-1,231.1494,77.1606)" d="M0 0C0 0-18.989-52.517-16.318-55.484-10.956-61.443 8.308-64.682 13.648-54.891 18.989-45.099 26.704-22.846 26.704-17.505 26.704-12.165 22.55-2.374 18.989-.593 15.009 1.397 5.341 2.374 0 0" fill="#231f20"/>
</g>
</svg>
