<svg xmlns="http://www.w3.org/2000/svg" xmlns:xlink="http://www.w3.org/1999/xlink" xmlns:inkscape="http://www.inkscape.org/namespaces/inkscape" version="1.1" width="600" height="600" viewBox="0 0 600 600">
<defs>
<clipPath id="clip_12">
<path transform="matrix(1,0,0,-1,0,600)" d="M0 600H600V0H0Z"/>
</clipPath>
</defs>
<g clip-path="url(#clip_12)">
<path transform="matrix(1,0,0,-1,299.9999,584.3477)" d="M0 0C-3.922 0-7.608 1.527-10.382 4.3L-280.048 273.966C-285.771 279.69-285.771 289.005-280.048 294.729L-10.382 564.396C-7.608 567.168-3.922 568.695 0 568.695 3.922 568.695 7.608 567.168 10.382 564.396L280.048 294.729C285.771 289.005 285.771 279.69 280.048 273.966L10.382 4.3C7.608 1.527 3.922 0 0 0" fill="#4a97d2"/>
<path transform="matrix(1,0,0,-1,299.9999,10.652527)" d="M0 0C-5.036 0-10.073-1.921-13.916-5.765L-283.583-275.431C-291.269-283.117-291.269-295.578-283.583-303.265L-13.916-572.931C-10.073-576.773-5.036-578.695 0-578.695 5.037-578.695 10.074-576.773 13.917-572.931L283.584-303.265C291.27-295.578 291.27-283.117 283.584-275.431L13.917-5.765C10.074-1.921 5.037 0 0 0M0-10C2.586-10 5.018-11.007 6.846-12.835L276.513-282.502C278.341-284.33 279.349-286.762 279.349-289.348 279.349-291.934 278.341-294.364 276.513-296.193L6.846-565.859C5.018-567.688 2.586-568.695 0-568.695-2.586-568.695-5.017-567.688-6.846-565.859L-276.512-296.193C-280.287-292.419-280.287-286.276-276.512-282.502L-6.846-12.835C-5.017-11.007-2.586-10 0-10" fill="#ffffff"/>
<path transform="matrix(1,0,0,-1,425.4569,406.003)" d="M0 0C0 0-24.844-6.475-64.496 12.496-90.737 .568-114.643-4.03-141.516 .568-160.096 3.747-177.942 9.46-196.143 14.47-223.685 22.052-248.855 27.542-251.933 32.262-257.045 40.101-269.271 81.516-248.184 132.114-235.905 161.576-224.643 184.47-222.965 196.524-222.371 200.794-221.602 232.989-174.231 249.688-126.861 266.388-95.849 260.594-88.011 245.599-80.173 230.604-81.208 193.981-90.056 194.82-103.934 196.138-117.62 189.442-131.037 190.806-144.455 192.169-159.918 201.587-164.008 199.056-168.098 196.524-171.449 181.105-173.55 170.13-176.643 153.97-162.643 129.312-161.622 110.145-155.147 115.757-135.925 125.489-112.548 126.321-91.363 127.074-83.239 121.891-67.904 106.555-62.792 110.723-38.22 128.674 3.357 126.97 3.603 99.862 9.369 79.348 9.369 49.51 9.369 3.311 0 0 0 0" fill="#ffffff"/>
</g>
</svg>
