<svg xmlns="http://www.w3.org/2000/svg" xmlns:xlink="http://www.w3.org/1999/xlink" xmlns:inkscape="http://www.inkscape.org/namespaces/inkscape" version="1.1" width="300" height="300" viewBox="0 0 300 300">
<defs>
<clipPath id="clip_19">
<path transform="matrix(1,0,0,-1,0,300)" d="M0 300H300V0H0Z"/>
</clipPath>
</defs>
<g clip-path="url(#clip_19)">
<path transform="matrix(1,0,0,-1,149.9997,237.0664)" d="M0 0C-48.085 0-87.066 38.981-87.066 87.066-87.066 135.151-48.085 174.133 0 174.133 48.086 174.133 87.066 135.151 87.066 87.066 87.066 38.981 48.086 0 0 0M0 202.755C-63.893 202.755-115.688 150.959-115.688 87.066-115.688 23.174-63.893-28.622 0-28.622 63.894-28.622 115.688 23.174 115.688 87.066 115.688 150.959 63.894 202.755 0 202.755" fill="#ffffff"/>
<path transform="matrix(1,0,0,-1,149.9997,190.7002)" d="M0 0C-22.478 0-40.699 18.223-40.699 40.7-40.699 63.178-22.478 81.4 0 81.4 22.479 81.4 40.7 63.178 40.7 40.7 40.7 18.223 22.479 0 0 0M0 113.636C-40.281 113.636-72.936 80.981-72.936 40.7-72.936 .419-40.281-32.235 0-32.235 40.281-32.235 72.936 .419 72.936 40.7 72.936 80.981 40.281 113.636 0 113.636" fill="#ffffff"/>
</g>
</svg>
